<svg width="1055" height="1055" viewBox="0 0 1055 1055" fill="none" xmlns="http://www.w3.org/2000/svg">
    <path d="M439 713.5C335.471 707.748 250.373 798.154 214.731 850.054C212.779 852.896 208.266 850.887 209.321 847.605C241.344 748.024 339.991 665.147 399.5 660C492 652 511.786 684.698 670 692C772.89 696.749 829.55 665.655 864.824 632.796C867.542 630.265 874.003 634.933 872.028 638.079C846.305 679.063 799.028 732 699 732C544.571 732 592 722 439 713.5Z"
          fill="black"/>
    <path d="M481 804.663C416.473 798.941 352.637 837.517 318.188 873.03C315.619 875.679 308.151 871.473 309.822 868.182C341.039 806.686 396.758 772.645 435.5 768.163C496 761.163 499.53 771.547 612.5 793.663C694.067 809.631 720.503 804.738 745.502 785.738C748.135 783.737 751.924 786.691 750.277 789.558C736.142 814.169 711.748 837.256 631 827.163C520.722 813.378 582.5 813.663 481 804.663Z"
          fill="black"/>
    <path d="M418.5 616.5C311.488 599.348 206.011 710.913 170.593 756.638C168.718 759.059 164.773 757.493 165.128 754.452C179.49 631.405 247.46 576.028 331 560C417 543.5 465.124 585.346 623 598C723.445 606.051 807.722 594.505 855.997 570.574C859.335 568.919 866.764 576.441 864.183 579.127C831.042 613.622 774.573 643.5 673 643.5C518.571 643.5 562 639.5 418.5 616.5Z"
          fill="black"/>
    <path d="M718.671 380.508C686.271 454.108 692.944 540.508 697.277 574.508C681.277 574.508 643.277 581.508 573.171 567.508C451.277 538.508 441.777 521.508 329.671 527.008C322.52 527.359 327.671 486.508 329.671 461.008C331.671 435.508 354.171 406.508 379.671 380.508C405.171 354.508 450.171 335.008 480.671 330.508C511.171 326.008 522.171 271.008 537.671 240.008C553.171 209.008 653.326 157.852 707.171 182.508C773.777 213.008 825.171 251.008 839.671 264.508C854.171 278.008 848.171 292.508 834.671 335.008C823.871 369.008 810.504 379.508 805.171 380.508C762.771 392.108 729.837 385.341 718.671 380.508Z"
          fill="black"/>
    <ellipse cx="596.428" cy="199.343" rx="36.5" ry="32.5" transform="rotate(33.9471 596.428 199.343)" fill="black"/>
</svg>
